<svg width="47" height="47" viewBox="0 0 47 47" fill="none" xmlns="http://www.w3.org/2000/svg">
<path d="M23.5 3.91675C12.69 3.91675 3.91666 12.6901 3.91666 23.5001C3.91666 34.3101 12.69 43.0834 23.5 43.0834C34.31 43.0834 43.0833 34.3101 43.0833 23.5001C43.0833 12.6901 34.31 3.91675 23.5 3.91675ZM30.1192 24.3422L32.9783 25.9872C34.2121 26.6922 34.6233 28.2784 33.9183 29.5122C33.2133 30.7459 31.6271 31.1572 30.3933 30.4522L27.5342 28.8072C27.3856 28.7227 27.2175 28.6785 27.0466 28.6788C26.8756 28.6791 26.7077 28.724 26.5594 28.809C26.4112 28.894 26.2876 29.0162 26.201 29.1636C26.1143 29.3109 26.0676 29.4783 26.0654 29.6493V32.9392C26.0654 34.3492 24.91 35.5242 23.4804 35.5242C22.0508 35.5242 20.8954 34.3688 20.8954 32.9392V29.6493C20.8954 28.9051 20.0729 28.4155 19.4267 28.8072L16.5675 30.4522C15.3337 31.1572 13.7475 30.7459 13.0425 29.5122C12.7011 28.9197 12.6084 28.2162 12.7846 27.5556C12.9608 26.8949 13.3915 26.331 13.9825 25.9872L16.8417 24.3422C17.4879 23.9701 17.4879 23.0301 16.8417 22.6384L13.9825 20.9934C13.3915 20.6496 12.9608 20.0857 12.7846 19.425C12.6084 18.7644 12.7011 18.0608 13.0425 17.4684C13.3863 16.8774 13.9502 16.4467 14.6109 16.2705C15.2715 16.0943 15.9751 16.1871 16.5675 16.5284L19.4267 18.1734C20.0729 18.5455 20.8954 18.0755 20.8954 17.3313V14.0413C20.8954 12.6313 22.0508 11.4563 23.4804 11.4563C24.91 11.4563 26.0654 12.6117 26.0654 14.0413V17.3313C26.0654 18.0755 26.8879 18.5651 27.5342 18.1734L30.3933 16.5284C30.9858 16.1871 31.6893 16.0943 32.3499 16.2705C33.0106 16.4467 33.5745 16.8774 33.9183 17.4684C34.6233 18.7022 34.2121 20.2884 32.9783 20.9934L30.1192 22.6384C29.4729 23.0301 29.4729 23.9701 30.1192 24.3422Z" fill="black"/>
</svg>
